<?xml version="1.0" encoding="UTF-8"?>
<svg id="Calque_2" data-name="Calque 2" xmlns="http://www.w3.org/2000/svg" viewBox="0 0 1610.63 590.63">
  <defs>
    <style>
      .cls-1 {
        fill: #fff;
      }

      .cls-2 {
        fill: #447950;
      }

      .cls-3 {
        fill: #f28b25;
      }

      .cls-4 {
        fill: #f9eee4;
      }
    </style>
  </defs>
  <g id="Calque_1-2" data-name="Calque 1">
    <g>
      <g>
        <path class="cls-2" d="M1103.75,531.51c-.99-20.02-23.87-30.72-41.39-20.04-5.47,1.82-10.08,6.62-13.11,11.22-10.91,9.15,7.04,35.71-24.64,39.39-27.54,3.2-26.86-20.21-26.86-20.21-.33-9.56-.3-80.19-1.78-99.45,1.24-4.47,0-7.57-.24-12.18-.01-3.74,.41-10.23,.5-14.03-1.44-6.71-1.06-26.02-.4-28.17,0-8.1-2.87-23.81,10.09-20.73,5.26,2.08-.77-6.39-.88-8.64-1.01-3.29-3.26-4.41-5.59-5.81-2.24-3.43-5.89-5.49-10.19-6.62-3.12-.96-7.45-1.11-11.21-.09-.89,.02-1.39-1.06-2.34-.66-10.66,4.19-19.33,15.4-20.87,29.7-.18,.61,.02,1.81-.93,1.7-3.03-1.64,1.33-10.12,.22-14.67-9.26,10.09-5.92,23.49-6.87,35.36,.18,17.47,.76,35.21,.43,52.95-.02,18.82,.78,33.9-.09,52.42,1.83,14.13-.62,27.95,1.27,41.97-.3,6.3,1.82,20.06,5.61,22.25-1.32-3.89-1.25-9.13-1.55-13.69-.04-.58,.31-1.63,.71-1.5,.46,.15,.68,1.53,.51,2.14,2.36,20.63,20.42,36.07,39.52,35.22,8.14-.31,10.42,1.43,20.31,1.29,3.41-.05,12.21-2.01,15.54-2.09,23.28,2.93,44.94-16.38,52.65-37.15,.14-.37,.69-.23,.64,.16-.41,3.22-1.21,6.35-2.82,9.15-1.31,1.62-2.06,3.9-2.91,5.98,14.09-6.92,8.56-38.73,24.82-33.8,1.37,.66,1.99,.21,1.85-1.38Z"/>
        <path class="cls-2" d="M1367.48,367.86c-4.72-15.09-11.44-19.96-26.56-22.5-3.2,.17-5.01,2.76-8.71,2.67-.6,.21-1.84-.31-2.18,.33-10.22,6.67-13.54,15.87-16.49,28.92,.13,.46-.07,.86-.57,.78-.5-.33-.55-1.56-.66-2.14,.11-1.64,.81-2.62,.86-4.59,.08-3.57,1.2-8.31,2.51-10.86-.1-.47-.3-.61-.72-.24-4.54,3.15-5.46,7.11-6.18,11.58-5.74,15.85-.17,31.81-2.75,48.35-1.12,4.47,1.53,6.61,.4,11.97-1.11,10.34-.6,23.35-.25,34.06-.22,7.94,.69,17.47-.45,24.65-.2,3.4,.61,8.68,.77,12.08,.15,6.21-1.17,15.95-.22,21.51-1.41,2.14-.33,5.24-.08,7.58,.27,1.98-.24,2.17,.16,4.39h-.36c-.18,21.35-7.37,32.89-30.53,28.43-14.66-5.18-13.68-15.67-12.19-28.43h-.32c.75-20.72,.23-39.88,.07-60.42,.24-4.7,.14-10.55-.19-14.94,.39-2.12,.58-5.22,.09-6.9-1.74-5.71,.58-14.18-.14-19.95-.99-11.03,.48-27.47-.56-39.52-.79-3.09,.45-7.74,.18-10.53-.65-2.24,.03-6.82-.52-9.56-1.22-6.36,8.17-11.11,11.49-5.64,.69,1.31,1.32,.45,.92-.67-2.08-6.98-4.66-17.39-13.14-19.39-3.79-3.17-9.04-4.06-14.32-3.36-6.93-.48-12.51,2.6-16.66,7.7-2.51,2.24-5.49,5.83-6.35,8.6-1.12,3.57-1.73,8.92-3.43,11.75-.59,1.42-1.27-.14-1.5-.79-.47-2.62,2.66-10.14,3.09-12.73-13.79,14.13-6.78,39.86-7.87,57.59,.02,19.65-.24,37.62,.15,57.15,.75,17.04-.15,34.7-.3,52.22,.1,12.62-2.56,32.51,4.72,43.98,2.56,1.42,.03-5.59,.13-6.63-.85-3.11-1.7-7.52-.81-10.18-.3-1.06,.69-2.18,.83-.54-.44,11.11,6.66,21.38,13.29,28.85,3.4,3.69,7.1,5.35,11.56,5.76,4.25,1.24,6.33,2.7,12.31,2.35,38.15-1.79,66.95,5.09,87.73-33.62,.97-2.65,3.68-9.56,3.62-9.8,2.98-.99-.29,4.64-.22,6.29-1.02,4.44-3.7,10.99-5.98,13.62,4.4-3.3,7.96-7.59,9.44-13.31,1.7-4.18,3.23-7.85,3.44-12.81,0,0,.38-2.86,.45-4.56h-.05c-.61-12.45,.66-24.4,.5-36.93-.29-10.06-1.24-18.96,.27-30.45,.86-5.78-.71-10.06-.8-15.7,0-3.93,.17-11.16,.32-15.16,1.55-23.37-2.38-45.4,1.53-66.91,2.83-8.24,13.66,2.53,11.18-3.38Z"/>
        <path class="cls-3" d="M1610.61,273.59c-.79-6.61-2.69-14.54-7.75-19.24-8.31-4.17-16.26-8.32-25.69-4.68l-.04,.23c-4.91,.8-9.99,3.02-13.45,6.68-2.24,1.14-5.53,5.08-7.04,7.12-1.83,4.01-3.85,9.66-5.02,13.91-.35,2.46-1.63,7.2-2.58,9.5-.21,.22-2.42,4.71-2.81,4.61-1.77,2.05-5.87,5.32-8.29,6.52,0,0-4.18,2.16-4.18,2.16-3.78,.06-8.97,.29-12.67-.63-1.9-1.41-5.64-4.39-7.41-5.96-3.49-5.25-2.12-12.65-1.7-18.55l-.56,.07c.14-7.42,.82-15.69,.79-23.1,.37-2.29,.6-6.88,.48-9.2l1.92-5.2,4.53-3.07,4.69-1.71c4.18-1.56,9.76-4,13.61-6.28,5.08-3.01,9.99-7.91,13.32-12.77,2.34-3.65,2.48-4.11,2.39-8.54-4.24-1.2-9.8,.23-13.85,1.56-2.55,.61-7.5,1.68-10.05,2.37-2.6,.63-7.88,1.96-10.49,2.57l-4.03-.89c-2.4-3.75-2.14-4.22-1.94-8.49-.03-9.24-1.12-19.2-1.81-28.41-.45-5.91,.19-12.97-.42-18.88,.03-2.36,.4-7.08,.79-9.41,.37-4.21,1.02-9.93,2.73-13.85-.22-.52,3.9-4.35,4.2-4.37,0,0,3.2-3.67,3.2-3.67,2.09-1.28,6.51-3.14,8.92-3.64,7.3-1.34,12.39-.07,17.85,5.04,3.38,4.73,3.95,8.77,3.29,14.42-.64,4.53-.7,10.66,1.25,14.91-.51,.17,1.53,4.86,1.55,5.14l2.74,4.16c4.27,4.8,11.48,7.56,17.75,8.29,4.5-.24,10.6-.86,14.55-3.25,6.6-4.62,5.66-1.62,11.26-9.03,3.15-2.21,5.58-6.4,6.63-10.05l-2.33-1.43-4.83-.6-2.29-4.36c.03-4.52,.03-10.71,.19-15.23-.43-2.31-1.91-6.74-3.2-8.71,0,0-1.62-3.92-1.62-3.92l-1.28-.65c.2,1.69,1.23,5.15,1.81,6.76,.26,2,.54,6.04,.57,8.05l-1.6-.63c.09-5.83-3.24-12.02-6.05-16.96-9.95-18.31-33.94-16.28-51.83-16.2-4.33,.36-10.25,.04-14.56-.39-6.2,1.26-13.8,1.99-19.52,4.91-4.05,2.01-9.24,5.32-12.35,8.63-1.08,1.59-3.94,4.98-5.71,5.84-2.56,2.62-4.97,7.02-6.79,10.18-.74,2.38-2.48,7.16-3.35,9.5-.47-1.88,0-5.8,.45-7.67,1.24-1.93,3.1-6.05,3.74-8.26-3.17,2.89-6.29,7.59-7.34,11.78-2.51,7.08-3.08,15.4-3.22,22.85-.41,4.14-.24,9.77,.16,13.9-.09,4.14,.23,9.77,.8,13.87-.07,4.49-.37,10.56-.23,15.06,.33,4.42,.8,10.26,.07,14.64,.2,3.92-.13,9.27-.74,13.15-.2,.4,.49,4.25,.52,4.74-.5,4.03-.21,9.33-.45,13.38,.06,2.72,.33,8.44-.23,11.1-.21,7.04-.22,14.93-.14,21.98h-.26c-.76,10.07-1.42,22.06,5.14,30.5l.85-.82c-1-2.47-2.41-7.57-2.84-10.2,.05-2.65,.11-8,.13-10.65l1,.02c.9,7.81,2.02,16.54,5.8,23.58,5.21,8.09,14.33,14.29,23.8,16.06,6.39,.79,13.99,.54,20.37-.21,2.34,.09,7.03,.06,9.37-.09,2.33,.3,7.02,.45,9.36,.27,2.35,.23,7.02,0,9.34-.47,4.17-.27,9.76-1.27,13.49-3.26,10.22-4.89,18.89-13.46,24.49-23.26,2.29-3.69,3.95-9.4,5.92-13.25l-.67,5.42-3.04,8.29c4.68-4.98,7.17-8.44,8.6-15.27,.45-4.33,.96-5.35,3.51-8.82,0,0,.73-.26,1.62-.58,2.05-.74,4.3-.7,6.33,.11l2.39,.96Z"/>
        <path class="cls-3" d="M1148.59,301.86c-2.02-.42-4.17-.71-6.45-.88-1.55-.11-3.14-.17-4.74-.17-5.73,0-11.46,.73-16.11,2.06-.7,.2-1.38,.46-2.02,.78-1.79,.88-3.48,1.92-5.05,3.09-.61-.08-1.22-.13-1.84-.13-3.42,0-6.71,1.32-9.03,3.6-.43,.42-.82,.82-1.19,1.2-.76-8.25-.69-16.79-1.06-24.93,.3-5.33,.69-11.72,.21-17.05,.41-3.84,.2-9.12-.17-12.96,.77-5.4-.14-11.87,.16-17.29-.61-3.75,.17-8.85-.48-12.59-.35-3.76,.37-8.84-.02-12.59-.78-8-.28-16.65-.37-24.65-.72-6.54,.24-13.9-.57-20.42-2.11-6.17-4.08-3.33-8.11-1.57-1.43,3.49-4.22,7.83-6.2,11.02-2.11,3.11-4.47,7.7-6.07,11.09-3.39,5.52-7.2,11.85-9.45,17.94-3.39,5.4-5.96,12.01-9.18,17.51-2.44,5.87-6.12,11.94-8.39,17.9-6.57,6.37-12.56,4.16-14.95-4.39-1.75-3.32-3.82-7.96-5.04-11.51-6.78-15.16-13.36-30.77-20.16-45.92-1.52-3.41-3.81-7.93-4.94-11.52-1.45-3.22-2.66-6.84-6.92-6.42-3.66,4.94-3.27,6.61-3.12,12.44-.08,6.62-.62,14.05-.1,20.67-.35,5.17-.32,11.34-.25,16.52-.22,3.68-.67,8.72-.15,12.39-.45,7.76-.71,16.13-.55,23.89-.45,10.62-1.14,21.74-1,32.39-.26,2.14-.33,6.39-.14,8.54-.5,3.06-.75,4.63,1.23,7.33l3.26,.46c.39-.04,4.25-2.57,4.46-1.62l-1.43,3.84c-1.84,4.88-4.57,10.33-7.96,14.33-2.56,4.46-7.63,8.48-12.52,10.04-8.91,2.68-16.84-2.14-22.41-8.82-2.45-3.06-3.95-8.13-5.54-11.65l-1.98,.41c.53,3.42,.76,8.14,2,11.41l-1.43,.71c-3.4-5.39-5.09-12.36-5.58-18.65,.23-3.48,.18-8.3,.37-11.78,.76-3.31,1.04-7.94,1.2-11.31-.06-15.15-.06-30.63,.18-45.78-.29-9.51,.26-19.56,.87-29.06,.2-13.62,.89-27.57,1.65-41.17,1.5-14.59-1.97-30.62,5.24-44.07l1.12,.65c-1.59,3.38-1.77,8.35-1.76,12.01l2.15,3.43c1.69-.22,1.73-6.79,2.34-8.36,1.67-6.35,5-12.85,9.07-17.98,8.31-8.13,23.32-10.64,32.34-2.34,1.32,1.39,3.83,4.39,4.93,5.95,.64,1.9,2.21,5.64,3.08,7.44,4.87,9.4,8.65,19.71,13.58,29.1,1.49,4.84,4.72,9.95,6.54,14.65,2.22,6.31,5.99,12.77,8.31,19.05,1.21,3.6,3.56,8.2,5.06,11.69,.88,2.56,1.34,4.41,4.08,5.6,3-1.04,3.32-2.99,4.24-5.34,1.86-3.28,3.19-8.25,4.85-11.61,3.08-5.91,5.53-12.99,8.43-19,2.88-4.17,4.66-9.96,7.45-14.17,4.04-8.21,8.16-17,12.82-24.87,1.77-4.69,4.86-9.75,7.22-14.14,1.46-1.31,4.42-3.79,5.97-4.98,11.81-6.88,28.08-.65,33.72,11.42,1.61,3.24,3.64,7.72,4.29,11.3,.48,1.96,1.1,5.95,1.36,7.95l1.42,.41c2.71-9.86-3.46-16.44-.43-17.04,5.35,9.92,6.31,21.67,6.49,32.72-.21,2.11-.02,6.39,.37,8.47-.36,6.79,.17,14.35,.1,21.15,.43,9.69,.41,19.92,.92,29.59-.85,7.77,.44,16.18-.24,23.96,.1,20.95,.22,42.04,1.4,62.93,.19,2.5,.42,5.09,.66,7.72Z"/>
        <path class="cls-3" d="M1261.53,212.99c9.66-19.93,22.6-38.56,29.98-59.56,2.17-6.95,1.71-15.18,2.58-22.35-.67-8.7-.48-23.41,11.37-13.37-.67-11.21-8.51-18.89-19.73-19.27-2.46-.91-7.31-1.3-9.88-.77-7.57,.64-11.55,5.73-16.03,11.13-.85,2.41-2.63,7.27-3.51,9.67,.28,2.09,.19,6.28-.11,8.37l-1.86-6.29c-.15-.34,1.17-6.86,.12-6.63-2.51,2.56-3.18,4.21-3.44,7.69-1.13,4.48-.71,10.67-1.01,15.22-.42,2.43-.51,7.24-.24,9.68-1.43,5.93-1.47,13.21-2,19.26-.71,9.63-3.28,19.72-5.21,29.13-2.53,6.66-3.79,15.56-10.23,19.71-6.52-1.5-10.86-8.33-13-14.24-3.68-5.23-6.66-12.12-8.61-18.18-1.11-5.77-2.99-12.45-3.74-18.3-.87-4.14-.13-9.83-.75-14-.02-2.48-.66-7.39-1.25-9.8,.19-2.21,.18-6.86-.03-9.06,.7-1.92,2.13-5.84,2.88-7.75,4.81-2.52,5.02-2.63,10.22-.84-1.15-8.18-7.19-14.94-13.96-19.21-4.78-1.39-9.77-3.53-14.82-1.84-4.55,1.52-9.58,5.52-13.19,8.57-1.33,2.01-4.15,5.97-5.6,7.89-1.54,4.11-1.74,10.01-1.69,14.34-2.8-2.51-2.38-3.12-2.04-6.59,.04-2.33-.02-7.48-.06-9.85-6.45,7.03-5.37,12.6-5.3,21.26,.06,2.44,.75,7.09,1.42,9.43,.11,2.52,1.33,6.97,2.54,9.17,.75,4.13,3.34,9.04,5.55,12.55,.77,3.99,3.13,8.91,5.02,12.47,.74,4.17,3.65,8.94,6.35,12.12,6.8,11.52,13.97,23.29,20.67,34.86,6.29,9.42,5.63,10.39,4.47,21.49,1.43,10,2.23,20.86,1.55,30.97,.22,9.21,.61,19.23,2.91,28.2,.65,1.87,2.2,9.33,4.49,8.07-.45-4.63-2.29-10.71-.66-15.29,.82,2.25,1.61,6.85,1.68,9.24,0,0,2.08,4.39,2.08,4.39,3.42,6.4,9.22,8.69,16.03,9.76,3.9-.64,9.28-1.15,13.15-2,7.16-1.71,12.34-9.42,13.09-16.5,1.26-3.7,2.58-8.87,1.64-12.78-2.71,2.64-4.02,2.98-7.78,3.09,0,0-2.76-4.35-2.76-4.35-.63-2.49-1.76-7.49-2.25-10.01,.14-2.57,.34-7.71,.41-10.28-.2-4.29-.35-10.15-.76-14.42,.08-4.18,.26-9.88-.68-13.98,2.21-10.46,7.04-20.77,12-30.2Z"/>
        <path class="cls-3" d="M1450.59,264.65c-5.51-19.82-30.17-23.73-44.78-11.19-1.43,1.16-4.09,3.73-5.34,5.08-.9,1.6-2.92,4.71-4.08,6.15-.95,1.59-2.25,5.06-2.64,6.87,0,0-1.12,3.55-1.12,3.55l.33,4.24c-.33,2.19-2.08,5.94-3.63,7.57-.61,1.83-2.44,5.23-3.71,6.7-4.2,4.33-11.14,8.24-17.26,6.31-5.32,.96-9.62-2.16-12.03-6.74-2.84-4.24-3.31-10.33-3.49-15.29-.83-6.25,.11-13.3,.11-19.58,.34-10.13-.02-20.72-.26-30.83,.27-3.44,.07-8.13-.26-11.56,.29-4.83,.32-10.58,.25-15.41,.52-8.59,1.01-17.67,1.14-26.28-.27-4.62,.79-10.08,.83-14.71,.05-4.73-1.17-10.28-1.18-15.01-.17-4.79,2.35-9.98,4.86-13.93,2.91-3.72,7.82-6.63,11.98-8.72,3.23-1.2,7.81-.88,11.18-.68,3.33,.91,6.99,3.49,8.93,6.36,3.27,3.66,3.24,9.6,3.49,14.25v-.03c-.98,7.18-.75,7.85,1.23,14.7,4.2,8.35,10.6,13.73,19.82,15.71,9.85,1.28,18.71-1.78,25.74-8.77,2.24-2.9,5.47-6.74,7.2-10,.69-1.96,2.23-5.89,3.01-7.82-1.08,.73-3.93,2.21-5.1,2.84,0,0-3.23-1.79-3.23-1.79-.73-1.8-1.89-5.5-2.31-7.4,.03-1.84-.22-5.5-.5-7.31,.26-4.46-.8-10.36-4.73-13.03,.74,5.63,2.71,6.94,.33,12.83-1.23-1.14-1.29-4.3-1.3-5.81-1-3.36-1.98-8.05-3.83-11.08-2.41-4.41-6.7-8.33-10.5-11.51-2.68-2.36-7.15-3.78-10.52-4.7-7.29-.97-15.19-1.65-22.47-2.7-3.37,.41-7.95-.18-11.31,.36-3.37,.12-7.97-.07-11.27,.79-16.98,2.74-35.11,10.42-43.6,26.24-3.19,5.21-5.7,11.49-7,17.46-.68,3.36-2.65,7.6-3.29,10.97-.95,6.08-1.61,12.97-1.19,19.12-.77,4.77-.57,10.52-.51,15.33-.4,3.41-.35,8.11,.07,11.52-.21,10.08-.58,20.59-.52,30.69,.03,6.21-.57,13.15-.26,19.38,.29,1.92,.1,5.85-.31,7.76,.42,4.83,.2,10.66,.01,15.51-.89,6.2-1.15,13.23-1.1,19.48,.84,4.94,1.59,10.71,5.42,14.42-.56-3.35-.94-7.96-1.22-11.34-.14-1.73-.44-4.25,.9-5.68,.46,14.57,8.54,30.44,23.33,34.69,5.87,1.37,12.57,1.11,18.54,1.07,4.68,.2,10.24,.37,14.92,.36,11.77,.5,24.25,.39,35.09-4.84,9-4.74,17.05-12.05,21.87-21.07,3.32-3.61,4.71-9.37,6.92-13.64,.84,5.89-3.2,9.63-4.23,15.03,3.28-3.44,6.35-8.15,8.11-12.56,.34-3.28,1.95-7.48,2.32-10.76,1.66-4.83,4.67-8.86,10.26-6.93,1.84-1.51,1.86-2.36,1.86-4.63Z"/>
        <path class="cls-2" d="M1188.69,553.37c-12.06,15.39-12.49-13.78-13.96-21.85-2.66-10.63-1.73-38.21-4.01-49.24-.37-3.41-1.32-35.5-2.72-42.78-1.64-8.47-1.56-10.08-2.56-18.53l-.19,.03c-.2-1.58-.41-3.16-.64-4.78-.3-1.9-1.06-7.09-1.89-12.67-1.47-9.99-11.26-18.23-21.26-16.83l-4.13,.58c-13.86,2.91-15.97,10.6-16.02,19.74-.01,2.03-.18,5.07-.13,7.41-3.29-4.54-2.6-15.32-2.47-18.65,.02-.42-.57-.55-.72-.16-1.37,3.48-4.24,10.2-2.79,19.09,1.31,8.01,1.5,15.2,3.18,23.94,1.01,6.77,1.32,32.9,1.32,32.9,.62,9.58,3.98,45.26,3.98,45.26,1.53,10.94,2.91,22.01,4.29,33.2,2.71,13,.95,24.76,11.84,34.7,.88,1.16,2.89,.85,1.26-.54-5.05-3.62-6.73-27.08-1.87-11.34,2.22,10.84,10.41,16.59,22.53,17.77,2.03-.17,2.67-1.71,4.15-2.8,14.13-3.38,24.86-20.08,24.57-35.15,.08-1.95-1.73-.42-1.75,.69Z"/>
        <path class="cls-2" d="M1158.6,352.12c2.09,3.48-4.28,9.97-7.95,11.33-2.87,2.71-20.48,7.55-26.48,3.92-7.31-4.42-18.76-3.6-20.51-19.69-.03-.32-.06-.65-.09-.99-.4-4.13,.51-18.54,3.83-23.24,.03-.05,.07-.08,.09-.13,.65-.91,1.61-2.05,2.49-3.04,.54-.61,1.63-.04,1.31,.72-4.17,9.87-.37,15.17-.37,15.17,0,0,.45-2.94,.72-5.02,.88-6.68,4.71-12.49,10.12-15.59,4.01-1.34,9.68-2.01,14.95-1.57,5.75,.48,11.02,2.28,13.12,5.99,6.53,2.44,13.57,27.05,8.77,32.14Z"/>
        <path class="cls-2" d="M1609.82,559.33c-3.5,1.83-3.71,2.64-7.87,1.77l-1.42-3.43v-3.68c-.62-4.61-.36-10.09-.69-14.7,.04-8.48-1-17.41-.47-25.9,.07-5.99-.34-12.65,.2-18.63-.08-3.34-.65-7.85-.25-11.18,.13-3.33-.27-7.86,.02-11.18-.32-3.33-.24-7.9,.09-11.23-.2-1.87-.37-5.64-.34-7.52-.69-4.69,.3-10.33-.54-15.03,.16-3.35-.15-7.94,.14-11.28-.37-1.85-.58-5.64-.41-7.52,.62-4.73-.5-10.33-.17-15.05-.2-8.87-.33-18.4-2.9-26.95-.95-3.38-2.02-8.1-4.19-10.96l-1.28,.7c1.42,5.45,3.89,11.89,1.6,17.41l-1.28-.4c-.33-1.94-.87-5.87-1.15-7.82-.9-3.42-2.67-7.9-4.33-11.02-2.4-6.02-7.52-11.09-12.98-14.43-3.09-1.72-7.76-2.18-11.2-2.6-5.22,.31-9.32,.94-13.75,3.98-1.54,1.07-4.02,3.59-5.01,5.17-1.37,1.43-3.05,4.62-3.57,6.53-5.81,12.28-22.5,47.31-28.42,58.71-2.52,5.44-13.25,28.08-16.44,29.19-2.92-1.27-5.38-7.59-6.31-10.31-1.59-3.7-5.29-11.62-6.58-15.45-2.48-6.68-13.91-29.6-16.27-36.31,0,0-11.12-24.58-12.52-27.72-1.87-4.16-4.7-9.07-8.61-11.6,0,0-3.08-1.94-3.08-1.94l-3.54-.86c-3.11-1.04-7.52-.92-10.75-.98-1.85,.71-5.69,1.82-7.61,2.3-5.59,3.15-10.83,8.35-13.03,14.47-3.37,5.52-4.6,12.58-5.53,18.87l-1.05,.3c-3.85-4.72-2.41-11.14-.24-16.27l-1.15-.56c-4,4.73-4.61,11.96-5.03,17.91-.76,3.35-.64,7.92-.31,11.31-.15,1.92-.3,5.67-.3,7.58,.23,3.41-.39,7.98-.34,11.39-.23,3.4-.13,8.01-.72,11.37,.23,7.41-.82,15.37-.87,22.77-.16,6.1-.42,12.89-.52,18.99-.61,3.37-.29,8.02-.8,11.39,.22,1.93,.23,5.8,.03,7.73,.53,3.43,.32,8.14,.08,11.59,.28,6.19,.25,13.14-.19,19.32-.23,7.46,.42,15.54,.07,22.99-1.31,6.01-1.17,12.86-1.32,18.97,.21,1.86,.39,5.75,.37,7.63,.78,3.54,4.44,9.37,6.18,12,.13,.2,.44,.05,.37-.18-1.01-3.29-1.4-7.42-1.64-10.57l.06-3.16c.01-.59,.83-.73,1.03-.18,1.22,3.31,3.06,8.51,3.45,9.82,2.16,4.16,5.35,8.64,9.1,11.52,6.2,4.05,14.71,5.54,21.6,2.42,1.83-.94,4.89-3.44,6.16-5.06,1.52-1.33,4.12-4.35,5.18-6.07,3.43-5.43,6.38-11.96,8.78-17.9-.25-.65-2.64,.64-4.28,1.54-.92,.5-2.01,.59-2.99,.23l-1.27-.46c-2.25-4.53-.89-10.52-1.27-15.37,.3-2.03,.31-5.95,.03-7.97,.28-2,.57-5.96,.57-7.97-.11-2.03-.02-6.05,.18-8.07-.21-2.07-.05-6.12,.31-8.17-.14-3.66-.28-8.64,.47-12.25-.14-3.45,.28-8.14,.23-11.58-.51-3.35,.23-7.88,.06-11.24-.44-4.71,.2-10.28,.23-14.99-.57-4.69,0-10.29,.25-14.99-.28-1.86-.23-5.64,.09-7.5,0-4.7-.17-10.31,.02-15-.03-1.53,.32-5,1.05-6.4,0,0,2.36-1.44,2.36-1.44l-.04-.15,3.16,.37c2.21,1.72,2.9,3.29,3.81,5.76,1.54,3.09,3.15,7.48,4.47,10.65,.35,.68,.69,1.37,1.03,2.07l-.11,.13c7.23,16.12,14.24,32.72,21.44,48.84,1.3,3.77,3.5,8.72,5.36,12.24,1.06,3.79,2.79,6.41,4.95,7.68,.46,.34,1.01,.69,1.68,1.09,0,0,3.61-.02,3.61-.02l3.33-1.38c.52-.51,1.13-1.28,1.72-2.14,.2-.18,.4-.37,.61-.56,.13-.35,.28-.69,.42-1.04,.55-.92,1.02-1.82,1.3-2.51,2-2.89,3.89-7.27,5.3-10.48,4.1-6.47,6.92-14.29,10.54-21,1.31-3.25,3.75-7.37,5.32-10.49,2.36-4.39,4.77-9.87,7.81-13.85,.66-1.9,2.59-5.43,3.84-7.01,1.61-3.17,3.96-7.46,5.82-10.5,.48-.79,1.3-2.04,2.14-3.24,1.72-2.44,5.14-3.01,7.49-1.18l.06,.05c1.52,2.86,.77,7.38,.99,10.5,.54,3.52,.37,8.35,.57,11.89-.59,3.54,0,8.34,.13,11.9-.23,3.55-.35,8.38,.19,11.91-.03,4.91,.18,10.76,.37,15.67-.37,4.92-.07,10.77,.32,15.69-.4,4.71-.32,10.38,.03,15.09-.17,4.72-.15,10.38,.17,15.09-.37,3.37,.31,7.97-.11,11.34-.18,7.36-.82,15.3,.05,22.64,.79,5.9,.58,13.18,4.66,17.96l1.26-.58c-1.39-3.5-1.42-8.56-2.06-12.22l1.96-.39c.85,1.65,2.18,5.08,2.71,6.86,2.27,4.08,5.27,8.71,9.03,11.59,7.22,3.95,13.74,6.03,21.53,2.2,5.91-2.84,10.39-8.77,13.32-14.47,2.45-4.36,5.48-9.52,7.03-14.31l-.81-.5Z"/>
      </g>
      <g>
        <g>
          <path class="cls-4" d="M749.3,423.88c-.21,.81,1,1.45,.21,2.46-1.2,4.17-.09,8.27-.98,12.49,.67,5.14-2.06,10.63-5.72,14.42-4.07,2.1-16.47,7.35-20.9,9.54-4.15,.66-7.05,3.23-10.78,4.88-.69,.18-1.7,.05-2.28,.46-3.01,2.82-7.45,3.11-10.26,5.8-2.83-.41-4.62,2.63-7.31,2.23-2.06,1.43-4.65,2.35-6.91,3.6-4.1,.55-7.24,3.15-10.76,4.73-5.2,1.22-9.91,5.03-15.07,6.99-.61,.32-1.2,.93-2.06,.45-2.26,1.6-4.93,2.77-7.48,3.92-8.57,4.82-16.9,9.72-26.23,12.05-6.79,4.6-25.29,3.06-33.96,3.17-9.91-.9-19.85-.87-29.24,.59-8.16,.14-16.3,1.15-24.53,.55-3.51-1.46-11.14,.87-10.49-4.97-14.38,4.25-15.01-18.17-15.98-27.62,.67-7.79-3.47-14.52-.7-22.05,3.88-6.33,5.72-4.11,11.15-5.91,.81-.63,1.59,.64,2.5,.32l7.68-.5c3.06-1.54,6.88-.57,10.11-.25,2.1-.56,4.35-.59,6.47-.3,5.46-.03,26.14-2.27,30.78-2.01,3.9-.18,7.45-.54,11.06-.19,1.64,.31,3.37-1.66,5.07-.77,9.62-.22,19.33-5.44,28.57-6.83,9.23-3.24,19.73-4.98,28.76-8.05,3.75,.72,11.16-3.42,14.82-2.74,10.73-1.96,22.08-6.56,32.87-8.23,10.75-3.82,22.36-7.43,33.95-10.21,8.28-3.34,16.92-.83,17.41,8.61,.77,1.16,1.15,2.33,.22,3.37Z"/>
          <path class="cls-4" d="M855.66,424.14c-1.48,5,.9,10.69-3.46,14.95-.18,1.39-2.23,3.5-3.43,3.03-2.49,2.72-11.61,5.37-14.5,3.87-6.13,1.43-14.29,2.71-20.95,1.51-.35,.63-.86,.15-1.16,.63-1.19,1.14-2.21,.09-3.32,1.24-3.36,.3-15.3,4.11-14.27-3.47-6.28,4.91-15.89-5.15-15.81-12.02-.45-1.04,1.68-1.4,.42-2.53-.2-.32,.55-.47,.53-.69-.29-2.1,1.59-10.17,3.27-11.38,.64-2.38,3.75-11.54,3.63-13.39,1.88-1.92,1.93-5.6,3.58-7.26,4.8-4.4,10.11-6.07,15.99-7.71,2.09-1.58,4.85-.45,6.39-2.01,1.89,1.16,4.3-1.69,6.06-.56,.14,.1,.36-.71,.56-.58,2.56,1.47,11.01-4.01,12.55-2.7,.15,.19,.41,.11,.46-.12,.57-1.54,1.93-.19,2.66-1.71,5.57-1.47,15.37-.05,16.89,6.67,2.55,2.63,1.27,7.24,2.62,11.5,.19,6.8-.86,16.08,1.31,22.74Z"/>
        </g>
        <g>
          <path class="cls-2" d="M171.84,388.37c0,.15,.13,.35-.25,.45-.08,.01-.09,.1-.05,.15,.44,.64-.07,1.19-.08,1.8,.02,.44,.07,.91-.12,1.33-.2,.42-.47,.8-.51,1.27-.03,.36-.12,.82-.37,1.02-.24,.21,.24,.83-.46,.78-.18,.26-.32,.54-.52,.79-.18,.21-.18,.52-.64,.55-.16,.02-.25,.18-.21,.32,.15,.48-.13,.69-.48,.88-.09,.04,.01,.22-.03,.3-.14,.24-.27,.49-.48,.7-.61,.6-.75,1.51-1.27,2.19-.1,.12,.03,.43-.12,.49-.91,.4-1.11,1.36-1.91,1.81-1.19,.65-1.87,1.72-3.04,2.48-.15,.09-.49-.04-.5,.08-.05,.36-.44,.34-.53,.61-.15,.53-.66,.5-1.01,.76-.25,.19-.66,.09-.79,.56-.02,.07-.14,.1-.21,.07-.57-.23-.9,.43-1.43,.32-.22,.13-.45,.24-.68,.29-.23,.04-.52,.07-.67,.05-.35-.01-.71-.07-1.08-.01-.1,.02-.2,.12-.31,.18-.05,.03-.11,.09-.15,.05-.65-.48-1.32-.1-1.98-.23-.21-.04-.43-.18-.64-.23-.22-.04-.45,.08-.66-.23-.06-.1-.19-.04-.27-.01-.5,.21-.88-.44-.89-1.49-.01-.11,0-.19,.02-.24h-.1c-.08,.29-.24,.42-.53,.53-1.05,.39-2.03-.11-2.83-.21-.99-.29-1.73-.65-2.5-.95-.12-.05-.36,.07-.5-.01-.56-.33-1.26-.53-1.6-1.1-.38-.61-.83-1.09-1.43-1.44-.56-.36-.91-.89-1.27-1.44-.12-.19-.25-.38-.11-.69,.11-.22,.04-.49-.35-.66-.07-.03-.02-.14,0-.22,.01-.08,.13-.2,.08-.24-.6-.58-.2-1.31-.2-1.93,.01-.16,.2-.3-.1-.52-.08-.05-.04-.21,.04-.23,.24-.07,.32-.16,.37-.32,.21-.6,.52-1.17,.86-1.7-.21-.48,.16-.67,.36-.93,.16-.2,.43-.31,.66-.44,.22-.13,.19-.49,.64-.43,.07,.01,.04-.13,.12-.21,.18-.18,.24-.26,.35-.38,.1-.11,.22-.2,.37-.23,.15-.03,.32-.07,.43-.15l4.29-3.3c.12-.1,.27-.15,.24-.44-.02-.22,.21-.41,.43-.33,.36,.11,.43-.1,.6-.21,.3-.19,.55-.44,.86-.63,.19-.12,.23-.43,.66-.21,.04,.02,.09-.02,.09-.07-.09-.46,.32-.34,.55-.44,.15-.07,.29-.18,.31-.45,0-.25,.26-.48,.48-.38,.33,.11,.41-.07,.53-.16l.08-.04,.41-1.53,.42-1.69c.12-.56-.11-1.19,.19-1.71,.07-.12-.06-.31,.27-.35,.07-.01,.05-.12,0-.19-.23-.21-.09-.34-.03-.5,.26-.77,.63-1.51,.57-2.34-.03-.64,.21-1.2,.3-1.79,.03-.21,.29-.35,.38-.54,.1-.19,.13-.38,.16-.58,.02-.12,.13-.21-.08-.38-.11-.09-.1-.26,.02-.31,.42-.14,.34-.42,.42-.65l.56-2c.06-.16-.07-.4,.34-.45,.06-.01-.03-.13-.05-.2-.02-.08-.11-.18-.04-.22,.6-.31,.46-.83,.6-1.27,.35-1.05,.58-2.14,.97-3.19,.11-.3-.13-.64-.02-.92,.1-.27,.15-.57,.26-.83,.08-.2-.02-.45,.41-.54,.12-.02,.16-.16,.09-.25-.31-.32-.03-.5-.02-.76,.03-.31,.35-.53,.07-.92-.09-.09,.19-.23,.25-.37,.12-.25,.22-.5,.3-.78,.03-.13-.03-.35,.01-.48,.29-1.08,.71-2.19,1.36-2.66,.08-.07,.16-.12,.26-.19,.06-.02,.1-.05,.16-.07,.04-.08,.09,0,.13-.01,.09,.03,.16,.04,.26,.09l.31,.18c.43,.25,.83,.45,1.26,.76l1.33,1.23,.66,.6,.43,.43c.21,.22,.66,.23,.49,.78,.42-.02,.47,.27,.4,.68-.01,.05,.15,.01,.24,.03,.24,.04,.76-.19,.52,.35-.01,.02,.03,.02,.03,.04,.09,.19,.59-.12,.52,.27-.04,.25,.2,.35,.33,.49,.07,.08,.13,.15,.21,.23,.09,.09,.21,.19,.33,.26,.13,.09,.2,.23,.3,.33,.09,.13,.14,.25,.39,.3,.08,.02-.13,.34-.08,.45,.27,.48,.01,1,.65,1.31,.14,.08,.19,.23,.11,.36-.24,.48,.05,.79,.31,1.15,.32,.47,.55,1.02,.16,1.66-.09,.13-.16,.2,.06,.26,.14,.04,.14,.18,.18,.27,.31,1.14,.59,2.28,.86,3.42,.07,.32-.27,.69-.05,.98,.1,.12-.08,.32,.29,.36,.05,0,.1,.05,.08,.09-.32,.45,.32,.74,.24,1.15-.02,.09-.09,.18-.11,.26-.02,.1-.11,.21-.03,.27,.6,.5,.34,1.17,.56,1.76,.08,.2-.1,.46,.35,.58,.07,.02,.07,.11,.02,.15-.46,.43-.01,.76-.09,1.14-.04,.2,.26,.38-.14,.59-.04,.03,0,.1,.04,.14,.06,.08,.21,.14,.21,.22,.01,.22-.21,.48-.04,.67,.2,.22,.15,.45,.19,.68,.01,.13-.17,.27-.2,.41s.01,.26,.02,.4c.01,.18,.1,.36,.01,.55-.09,.19,.36,.31,.08,.53-.22,.15,.2,.32,.25,.49,.02,.08-.02,.18-.07,.26-.03,.07-.18,.13-.16,.2,.03,.13-.04,.26,.14,.42,.13,.1-.1,.29-.13,.43-.03,.15-.01,.3-.01,.45-.01,.15-.1,.31,0,.45,.43,.6,.13,1.21,.11,1.82Z"/>
          <path class="cls-4" d="M171.84,388.37c0,.15,.13,.35-.25,.45-.08,.01-.09,.1-.05,.15,.44,.64-.07,1.19-.08,1.8,.02,.44,.07,.91-.12,1.33-.2,.42-.47,.8-.51,1.27-.03,.36-.12,.82-.37,1.02-.24,.21,.24,.83-.46,.78-.18,.26-.32,.54-.52,.79-.18,.21-.18,.52-.64,.55-.16,.02-.25,.18-.21,.32,.15,.48-.13,.69-.48,.88-.09,.04,.01,.22-.03,.3-.14,.24-.27,.49-.48,.7-.61,.6-.75,1.51-1.27,2.19-.1,.12,.03,.43-.12,.49-.91,.4-1.11,1.36-1.91,1.81-1.19,.65-1.87,1.72-3.04,2.48-.15,.09-.49-.04-.5,.08-.05,.36-.44,.34-.53,.61-.15,.53-.66,.5-1.01,.76-.25,.19-.66,.09-.79,.56-.02,.07-.14,.1-.21,.07-.57-.23-.9,.43-1.43,.32-.22,.13-.45,.24-.68,.29-.23,.04-.52,.07-.67,.05-.35-.01-.71-.07-1.08-.01-.1,.02-.2,.12-.31,.18-.05,.03-.11,.09-.15,.05-.65-.48-1.32-.1-1.98-.23-.21-.04-.43-.18-.64-.23-.22-.04-.45,.08-.66-.23-.06-.1-.19-.04-.27-.01-.5,.21-.88-.44-.89-1.49-.01-.11,0-.19,.02-.24h-.1c-.08,.29-.24,.42-.53,.53-1.05,.39-2.03-.11-2.83-.21-.99-.29-1.73-.65-2.5-.95-.12-.05-.36,.07-.5-.01-.56-.33-1.26-.53-1.6-1.1-.38-.61-.83-1.09-1.43-1.44-.56-.36-.91-.89-1.27-1.44-.12-.19-.25-.38-.11-.69,.11-.22,.04-.49-.35-.66-.07-.03-.02-.14,0-.22,.01-.08,.13-.2,.08-.24-.6-.58-.2-1.31-.2-1.93,.01-.16,.2-.3-.1-.52-.08-.05-.04-.21,.04-.23,.24-.07,.32-.16,.37-.32,.21-.6,.52-1.17,.86-1.7-.21-.48,.16-.67,.36-.93,.16-.2,.43-.31,.66-.44,.22-.13,.19-.49,.64-.43,.07,.01,.04-.13,.12-.21,.18-.18,.24-.26,.35-.38,.1-.11,.22-.2,.37-.23,.15-.03,.32-.07,.43-.15l4.29-3.3c.12-.1,.27-.15,.24-.44-.02-.22,.21-.41,.43-.33,.36,.11,.43-.1,.6-.21,.3-.19,.55-.44,.86-.63,.19-.12,.23-.43,.66-.21,.04,.02,.09-.02,.09-.07-.09-.46,.32-.34,.55-.44,.15-.07,.29-.18,.31-.45,0-.25,.26-.48,.48-.38,.33,.11,.41-.07,.53-.16l.08-.04,.41-1.53,.42-1.69c.12-.56-.11-1.19,.19-1.71,.07-.12-.06-.31,.27-.35,.07-.01,.05-.12,0-.19-.23-.21-.09-.34-.03-.5,.26-.77,.63-1.51,.57-2.34-.03-.64,.21-1.2,.3-1.79,.03-.21,.29-.35,.38-.54,.1-.19,.13-.38,.16-.58,.02-.12,.13-.21-.08-.38-.11-.09-.1-.26,.02-.31,.42-.14,.34-.42,.42-.65l.56-2c.06-.16-.07-.4,.34-.45,.06-.01-.03-.13-.05-.2-.02-.08-.11-.18-.04-.22,.6-.31,.46-.83,.6-1.27,.35-1.05,.58-2.14,.97-3.19,.11-.3-.13-.64-.02-.92,.1-.27,.15-.57,.26-.83,.08-.2-.02-.45,.41-.54,.12-.02,.16-.16,.09-.25-.31-.32-.03-.5-.02-.76,.03-.31,.35-.53,.07-.92-.09-.09,.19-.23,.25-.37,.12-.25,.22-.5,.3-.78,.03-.13-.03-.35,.01-.48,.29-1.08,.71-2.19,1.36-2.66,.08-.07,.16-.12,.26-.19,.06-.02,.1-.05,.16-.07,.04-.08,.09,0,.13-.01,.09,.03,.16,.04,.26,.09l.31,.18c.43,.25,.83,.45,1.26,.76l1.33,1.23,.66,.6,.43,.43c.21,.22,.66,.23,.49,.78,.42-.02,.47,.27,.4,.68-.01,.05,.15,.01,.24,.03,.24,.04,.76-.19,.52,.35-.01,.02,.03,.02,.03,.04,.09,.19,.59-.12,.52,.27-.04,.25,.2,.35,.33,.49,.07,.08,.13,.15,.21,.23,.09,.09,.21,.19,.33,.26,.13,.09,.2,.23,.3,.33,.09,.13,.14,.25,.39,.3,.08,.02-.13,.34-.08,.45,.27,.48,.01,1,.65,1.31,.14,.08,.19,.23,.11,.36-.24,.48,.05,.79,.31,1.15,.32,.47,.55,1.02,.16,1.66-.09,.13-.16,.2,.06,.26,.14,.04,.14,.18,.18,.27,.31,1.14,.59,2.28,.86,3.42,.07,.32-.27,.69-.05,.98,.1,.12-.08,.32,.29,.36,.05,0,.1,.05,.08,.09-.32,.45,.32,.74,.24,1.15-.02,.09-.09,.18-.11,.26-.02,.1-.11,.21-.03,.27,.6,.5,.34,1.17,.56,1.76,.08,.2-.1,.46,.35,.58,.07,.02,.07,.11,.02,.15-.46,.43-.01,.76-.09,1.14-.04,.2,.26,.38-.14,.59-.04,.03,0,.1,.04,.14,.06,.08,.21,.14,.21,.22,.01,.22-.21,.48-.04,.67,.2,.22,.15,.45,.19,.68,.01,.13-.17,.27-.2,.41s.01,.26,.02,.4c.01,.18,.1,.36,.01,.55-.09,.19,.36,.31,.08,.53-.22,.15,.2,.32,.25,.49,.02,.08-.02,.18-.07,.26-.03,.07-.18,.13-.16,.2,.03,.13-.04,.26,.14,.42,.13,.1-.1,.29-.13,.43-.03,.15-.01,.3-.01,.45-.01,.15-.1,.31,0,.45,.43,.6,.13,1.21,.11,1.82Z"/>
          <path class="cls-3" d="M171.84,388.37c0,.15,.13,.35-.25,.45-.08,.01-.09,.1-.05,.15,.44,.64-.07,1.19-.08,1.8,.02,.44,.07,.91-.12,1.33-.2,.42-.47,.8-.51,1.27-.03,.36-.12,.82-.37,1.02-.24,.21,.24,.83-.46,.78-.18,.26-.32,.54-.52,.79-.18,.21-.18,.52-.64,.55-.16,.02-.25,.18-.21,.32,.15,.48-.13,.69-.48,.88-.09,.04,.01,.22-.03,.3-.14,.24-.27,.49-.48,.7-.61,.6-.75,1.51-1.27,2.19-.1,.12,.03,.43-.12,.49-.91,.4-1.11,1.36-1.91,1.81-1.19,.65-1.87,1.72-3.04,2.48-.15,.09-.49-.04-.5,.08-.05,.36-.44,.34-.53,.61-.15,.53-.66,.5-1.01,.76-.25,.19-.66,.09-.79,.56-.02,.07-.14,.1-.21,.07-.57-.23-.9,.43-1.43,.32-.22,.13-.45,.24-.68,.29-.23,.04-.52,.07-.67,.05-.35-.01-.71-.07-1.08-.01-.1,.02-.2,.12-.31,.18-.05,.03-.11,.09-.15,.05-.65-.48-1.32-.1-1.98-.23-.21-.04-.43-.18-.64-.23-.22-.04-.45,.08-.66-.23-.06-.1-.19-.04-.27-.01-.5,.21-.88-.44-.89-1.49-.01-.11,0-.19,.02-.24h-.1c-.08,.29-.24,.42-.53,.53-1.05,.39-2.03-.11-2.83-.21-.99-.29-1.73-.65-2.5-.95-.12-.05-.36,.07-.5-.01-.56-.33-1.26-.53-1.6-1.1-.38-.61-.83-1.09-1.43-1.44-.56-.36-.91-.89-1.27-1.44-.12-.19-.25-.38-.11-.69,.11-.22,.04-.49-.35-.66-.07-.03-.02-.14,0-.22,.01-.08,.13-.2,.08-.24-.6-.58-.2-1.31-.2-1.93,.01-.16,.2-.3-.1-.52-.08-.05-.04-.21,.04-.23,.24-.07,.32-.16,.37-.32,.21-.6,.52-1.17,.86-1.7-.21-.48,.16-.67,.36-.93,.16-.2,.43-.31,.66-.44,.22-.13,.19-.49,.64-.43,.07,.01,.04-.13,.12-.21,.18-.18,.24-.26,.35-.38,.1-.11,.22-.2,.37-.23,.15-.03,.32-.07,.43-.15l4.29-3.3c.12-.1,.27-.15,.24-.44-.02-.22,.21-.41,.43-.33,.36,.11,.43-.1,.6-.21,.3-.19,.55-.44,.86-.63,.19-.12,.23-.43,.66-.21,.04,.02,.09-.02,.09-.07-.09-.46,.32-.34,.55-.44,.15-.07,.29-.18,.31-.45,0-.25,.26-.48,.48-.38,.33,.11,.41-.07,.53-.16l.08-.04,.41-1.53,.42-1.69c.12-.56-.11-1.19,.19-1.71,.07-.12-.06-.31,.27-.35,.07-.01,.05-.12,0-.19-.23-.21-.09-.34-.03-.5,.26-.77,.63-1.51,.57-2.34-.03-.64,.21-1.2,.3-1.79,.03-.21,.29-.35,.38-.54,.1-.19,.13-.38,.16-.58,.02-.12,.13-.21-.08-.38-.11-.09-.1-.26,.02-.31,.42-.14,.34-.42,.42-.65l.56-2c.06-.16-.07-.4,.34-.45,.06-.01-.03-.13-.05-.2-.02-.08-.11-.18-.04-.22,.6-.31,.46-.83,.6-1.27,.35-1.05,.58-2.14,.97-3.19,.11-.3-.13-.64-.02-.92,.1-.27,.15-.57,.26-.83,.08-.2-.02-.45,.41-.54,.12-.02,.16-.16,.09-.25-.31-.32-.03-.5-.02-.76,.03-.31,.35-.53,.07-.92-.09-.09,.19-.23,.25-.37,.12-.25,.22-.5,.3-.78,.03-.13-.03-.35,.01-.48,.29-1.08,.71-2.19,1.36-2.66,.08-.07,.16-.12,.26-.19,.06-.02,.1-.05,.16-.07,.04-.08,.09,0,.13-.01,.09,.03,.16,.04,.26,.09l.31,.18c.43,.25,.83,.45,1.26,.76l1.33,1.23,.66,.6,.43,.43c.21,.22,.66,.23,.49,.78,.42-.02,.47,.27,.4,.68-.01,.05,.15,.01,.24,.03,.24,.04,.76-.19,.52,.35-.01,.02,.03,.02,.03,.04,.09,.19,.59-.12,.52,.27-.04,.25,.2,.35,.33,.49,.07,.08,.13,.15,.21,.23,.09,.09,.21,.19,.33,.26,.13,.09,.2,.23,.3,.33,.09,.13,.14,.25,.39,.3,.08,.02-.13,.34-.08,.45,.27,.48,.01,1,.65,1.31,.14,.08,.19,.23,.11,.36-.24,.48,.05,.79,.31,1.15,.32,.47,.55,1.02,.16,1.66-.09,.13-.16,.2,.06,.26,.14,.04,.14,.18,.18,.27,.31,1.14,.59,2.28,.86,3.42,.07,.32-.27,.69-.05,.98,.1,.12-.08,.32,.29,.36,.05,0,.1,.05,.08,.09-.32,.45,.32,.74,.24,1.15-.02,.09-.09,.18-.11,.26-.02,.1-.11,.21-.03,.27,.6,.5,.34,1.17,.56,1.76,.08,.2-.1,.46,.35,.58,.07,.02,.07,.11,.02,.15-.46,.43-.01,.76-.09,1.14-.04,.2,.26,.38-.14,.59-.04,.03,0,.1,.04,.14,.06,.08,.21,.14,.21,.22,.01,.22-.21,.48-.04,.67,.2,.22,.15,.45,.19,.68,.01,.13-.17,.27-.2,.41s.01,.26,.02,.4c.01,.18,.1,.36,.01,.55-.09,.19,.36,.31,.08,.53-.22,.15,.2,.32,.25,.49,.02,.08-.02,.18-.07,.26-.03,.07-.18,.13-.16,.2,.03,.13-.04,.26,.14,.42,.13,.1-.1,.29-.13,.43-.03,.15-.01,.3-.01,.45-.01,.15-.1,.31,0,.45,.43,.6,.13,1.21,.11,1.82Z"/>
        </g>
        <g>
          <path class="cls-2" d="M430.34,253.23c.32-3.21-1.79-5.12-1.79-5.12,0,0-.85-2.56-1.41-3.4-3.14-4.76-5.84-7.34-10.23-7.74-4.27-3.93-17.49-3.21-24.23,.48-2.16,1.97-8.43,.25-9.41,5.92-9.2,6.82-7.44,22.14-7.44,22.14,0,0-.32,8.17,2.36,14.94,2.68,6.77,6.66,10.88,8.79,12.64,2.13,1.77,6.87,2.61,6.87,2.61,0,0,14.49,3.68,21.15-1.88,.46-2.47,4.04-2.35,3.68-4.89,2.55-1.54,4.94-5.82,4.94-5.82l1.64-4.11s2.13-2.43,1.19-4.81c1.78-2.04,1.63-14.29,3.88-20.95Z"/>
          <path class="cls-2" d="M403.81,297.51c-5.18,0-9.77-1.14-10.11-1.23-.16-.03-4.88-.89-7.1-2.73-1.73-1.43-6.06-5.56-8.97-12.88-2.7-6.81-2.42-14.85-2.41-15.19-.07-.54-1.67-15.45,7.49-22.46,.79-3.89,3.95-4.5,6.5-4.99,1.25-.24,2.43-.46,3.06-1.03l.12-.08c6.72-3.68,20.07-4.57,24.78-.53,4.66,.5,7.47,3.43,10.48,7.99,.52,.79,1.23,2.82,1.43,3.41,.48,.49,2.17,2.46,1.86,5.51l-.03,.13c-1.1,3.25-1.62,7.9-2.09,12-.51,4.56-.88,7.54-1.7,8.85,.71,2.35-.96,4.57-1.34,5.03l-1.61,4.02c-.13,.24-2.34,4.17-4.87,5.91,.02,1.46-1.09,2.18-2,2.77-.8,.52-1.55,1.01-1.72,1.91l-.04,.21-.17,.14c-3.01,2.52-7.48,3.23-11.58,3.23Zm-10.78-59.56c-.88,.76-2.19,1.01-3.59,1.28-2.46,.47-5.01,.96-5.58,4.24l-.04,.24-.19,.14c-8.81,6.53-7.22,21.43-7.2,21.58,0,.17-.28,8.22,2.33,14.79,2.8,7.06,6.96,11.02,8.61,12.4,1.98,1.64,6.54,2.47,6.59,2.48,.18,.04,14.08,3.49,20.5-1.63,.33-1.26,1.36-1.93,2.19-2.48,1.03-.67,1.56-1.06,1.43-1.98l-.06-.4,.34-.21c2.38-1.44,4.7-5.56,4.72-5.6l1.72-4.21s1.87-2.18,1.08-4.19l-.13-.34,.24-.28c.77-.88,1.2-4.75,1.63-8.49,.46-4.14,.99-8.82,2.12-12.19,.25-2.8-1.52-4.48-1.6-4.55l-.11-.11-.05-.15c-.23-.69-.92-2.63-1.34-3.26-2.92-4.44-5.46-7.08-9.78-7.47l-.2-.02-.15-.14c-4.15-3.82-17.12-2.91-23.47,.53Z"/>
        </g>
        <path class="cls-1" d="M540.99,375.23c-.64,1.53-1.95,1.87-4.19,1.65,.16-.05,.32-.09,.47-.14,.93-.27,1.83-.61,2.7-1.01,.35-.15,.69-.33,1.02-.49Z"/>
        <path class="cls-2" d="M542.15,315.11c-.03-8.04-.21-16.35-2.27-24.09-.99-3.46,.09-7.23-1.47-10.41-2.36-6.54-2.16-14.13-5.5-20.71-.66-1.45-.77-3.22-1.46-4.59-1.83-2.94-.89-5.8-2.46-8.33-1.49-1.46-1.59-4.38-2.24-5.68-1.75-4.22-4.13-9.38-6.35-13.72-1.75-1.61-1.5-3.59-2.4-5.65-3.37-7.29-7.58-14.54-11.45-21.47-5.27-9.99-11.53-18.95-18.29-27.88-7.21-7.56-15.44-14.77-22.18-22.35-2.15-1.61-4.37-3.47-6.91-4.44-2.58-2.35-5.42-4.7-8.97-5.42-1.81-.38-2.49-1.9-3.79-2.96-.9-.91-2.61-1.62-3.71-2.25-3.06-1.71-6.46-3.37-9.52-5-2.19-2.92-5.91-2.26-8.65-3.77-14.31-5.52-28.91-9.31-43.98-11.88-1.65-.21-2.81-.42-4.31,.02-.11,.07-.46,.02-.5-.12-1.48-1.87-4.24-1.54-6.23-1.8-6.68-1.47-13.38-1.1-20.18-1.25-2.19-.1-4.42-.11-6.58-.66-2.13-.34-5.07,.95-7.28-.32-2.23-.83-4.76,.04-6.76,.35-2.13-.94-4.27,.27-6.15,.12-2.18-.09-4.41,.18-6.61,.23,.27-.25,.55-.5,.8-.77,1.09-1.13,1.95-2.28,3.07-3.29,1.65-2.14,3.41-4.28,4.52-6.7,.13-.31,.43-.83,.56-.94,.7-.58,.91-1.44,1.14-2.05,.18-.48,.33-.89,.59-1.33,.61-1.05,1.24-2.11,1.82-3.18,.45-.83,.94-1.76,1.31-2.7,.27-.77,.55-1.53,.83-2.29,.11-.26,.25-.55,.54-.64,.31-.01,.44,.34,.49,.59,.01,.13,.03,.26,.02,.38v.29s-.02,.41-.02,.41c-.02,.58-.27,1.24-.16,1.74-.3,.44-.41,1.08-.61,1.66-.18,.6-.43,1.21-.61,1.81-.14,.49-.24,.98-.44,1.46-.21,.54-.55,1.04-.84,1.56-.03,.04-.07,.14-.07,.18-.01,.47-.38,1.01-.66,1.5-.48,.92-.99,1.83-1.56,2.71-.52,.84-1.15,1.6-1.67,2.43l-.46,.74c-.42,.57-.44,1.35-.1,1.96,.32,.61,.97,1.06,1.59,1.19,.65,.15,1.42-.02,1.93-.48,.38-.41,.61-.77,.92-1.15,1.16-1.53,2.3-3.06,3.37-4.66,.59-.89,1.32-1.99,2.16-2.64,.94-1.79,2.51-3.29,3.54-5.1,.24-.44,.47-.83,.68-1.32,.26-.64,.77-1.54,1.15-2.06,.36-.49,.63-.95,.87-1.46,.61-1.32,1.4-2.62,1.74-3.99,.03-.16,.19-.52,.25-.59,.55-.59,.79-1.51,1.12-2.29,.64-1.45,1.2-2.94,1.77-4.41,.15-.38,.34-.76,.53-1.11,.27-.55,.47-1.06,.69-1.71,1.05-3.15,2.19-6.28,3.04-9.51,.69-2.66,1.79-5.35,2.12-8.13,.94-3.79,1.21-7.63,1.55-11.48,.1-1.27,.18-2.56,.16-3.84,0-.54-.15-1.31-.09-1.57,.21-.78,.06-1.58,.08-2.35,.03-.93-.07-1.82-.01-2.8,.04-1.26-.23-2.74-.2-4.09,0-.19-.03-.54-.08-.65-.32-.66-.34-1.51-.47-2.28-.14-1-.4-1.78-.71-2.56-.12-.27-.21-.55-.33-.67-.01-.02-.01-.07-.02-.09-.02-.1-.03-.2-.04-.29,.13,.19,.29,.22,.49,.18,.32-.08,.5-.21,.58-.45,.09-.41,.09-1.12-.08-2.24-.21-1.47-.56-2.9-.86-4.31-.31-1.5-.9-2.77-1.33-4.18-.45-1.47-.82-3.03-1.55-4.33-.09-.15-.22-.53-.21-.61,.02-.64-.35-1.37-.59-2.03-.31-.82-.61-1.64-.94-2.45-.27-.72-.71-1.89-1.57-2.6-.98-.89-2.28-1.43-3.63-1.43-1.34-.02-2.71,.54-3.64,1.5-.2,.21-.33,.36-.48,.5-1.26,1.22-1.24,1.22-2.34,2.61-.52,.65-1.09,1.32-1.77,1.88-.44,.37-1.11,1.02-1.31,1.36-.4,.7-.98,1.22-1.5,1.79-1.06,1.15-2.12,2.27-3.3,3.19-1.03,.81-2.11,1.69-3.32,2.22-.37,.15-1.04,.57-1.26,.79-.58,.61-1.55,.92-2.1,1.37-.67,.54-1.42,.9-2.16,1.31-1.14,.61-2.34,1.09-3.49,1.61l-1.99,.91-.49,.23-.6,.34-.91,.58c-1.21,.78-2.46,1.49-3.74,2.17-.19,.1-.4,.21-.58,.31-2.56,1.5-4.81,2.47-6.77,2.93-.77,.19-1.46,.4-2.19,.66-1.05,.34-2.12,.69-3.18,1.01-1.06,.32-2.14,.63-3.23,.91l-3.25,.84-3.27,.78-3.29,.75c-1.1,.25-2.23,.56-3.29,.72-1.05,.15-1.95,.49-2.95,.68-.57,.11-1.24,.33-1.71,.36-1.17,.07-2.29,.47-3.42,.72-.3,.07-.7,.34-.87,.35-1.37,.09-2.58,.54-3.83,1.04-.47,.19-1.15,.34-1.67,.43-.66,.11-1.21,.27-1.79,.56-.2,.11-.59,.27-.69,.27-.14,0-.22,0-.37,.03-.17,.01-.38,.15-.44,.18l.03,.38s-.04-.07-.08-.12c-.02-.02-.05-.1-.07-.13,0,.02-.03,.07-.09,.11-.06,.07-.53,.08-.66,.02-.63-.24-1.82-.21-2.9,.41-.31,.18-.57,.4-.81,.64-.11,.12-.22,.25-.32,.38-.04,.07-.11,.16-.15,.23-.05,.01-.18,.03-.35,.05-.37,.05-.97,.09-1.58,.31-.32,.12-.64,.29-.93,.52-.4,.33-.27,.25-.32,.29-.01,.01-.02,0-.08,.01l-.2,.03-.29,.05c-.39,.08-.77,.2-1.12,.33-.71,.27-1.35,.61-1.94,.97-.7,.42-1.34,.83-1.94,1.13-.31,.14-.6,.26-.88,.34l-.52,.12c-.26,.07-.5,.15-.75,.25-.47,.2-.89,.46-1.25,.74l-.92,.71c-.6,.48-1.2,.97-1.77,1.49-.59,.25-1,.76-1.5,1.14-.67,.49-1.33,1-1.98,1.53-1.42,1.15-2.96,2.24-4.18,3.59-.25,.3-.76,.76-1,.87-.76,.38-1.36,1.06-1.99,1.66-1.08,.97-2.1,2.01-3.08,3.07-.37,.38-.68,.68-1.08,.99-.47,.35-1.19,.91-1.28,1.59-.01,.08-.2,.35-.32,.49-.27,.34-.55,.68-.8,1.03-.13,.16-.18,.19-.26,.31-.07,.1-.29,.26-.42,.4-.61,.57-1.23,1.16-1.84,1.79-.6,.63-1.22,1.28-1.72,2.06-.25,.38-.48,.8-.67,1.24-.18,.41-.35,.97-.43,1.29-.04,.15-.09,.29-.13,.38-.03,.07-.04,.09-.09,.16l-.14,.23-.59,.95c-.43,.68-.91,1.58-1.29,1.98-.68,.68-.58,1.32-1.11,1.9-.15,.18-.33,.58-.47,.72-.21,.18-.46,.58-.67,.91-.19,.34-.27,.61-.41,.93-.24,.61-.46,1.24-.75,1.82-.27,1.78-1.53,3.43-1.92,5.21-.43,.44-.61,1.23-.88,1.89-1.11,2.73-1.93,5.63-3.14,8.3-.11,.25-.29,.75-.26,.82,.11,.53-.52,.97-.47,1.57,.05,.57-.41,1.09-.58,1.64-.78,2.37-1.49,4.76-2.16,7.17-.09,.3-.07,.8-.13,.91-.58,1.05-.87,2.46-1.04,3.52-.35,1.99-.9,3.87-1.31,5.82-.36,1.7-.75,3.4-1.06,5.1-.18,.99-.45,1.95-.45,3,0,.59-.26,1.57-.46,2.3-.11,.37-.14,.45-.37,.95-.76,1.69-.82,3.34-1.11,5.11-3.18,2-6.17,4.26-8.81,6.91-.47,.52-2.41,1.05-2.71,1.4-.69,.71-1.92,.99-2.72,1.66-6.7,5-10.13,12.81-15.64,18.92-2.83,3.73-3.52,8.68-6.07,12.59-.23,.9-1.05,2.27-1.34,3.17-.6,.94-1.94,1.77-1.68,3.06,.11,2.05-1.48,4.15-1.92,6.24-1.22,2.9-1.92,6.43-3.09,9.28-1.49,1.54-1.11,3.96-1.06,5.75-1.67,2.15-1.46,5.38-1.27,7.79-1.05,2.15-2.44,4.59-2.02,7.19-.02,.02-.13,.18-.13,.18-1.25,2.61-2.17,5.38-3.01,8.2-.4,.02-.81,.01-1.24-.04-4.1-.6-8.28-.7-12.52-.82-5.17-.14-10.67-.88-16.05-1.28-1.4-.1-2.73-.16-4.19-.19-1.4,.01-2.78,.13-4.16,.21-2.73,.21-5.41,.48-8.11,.79-7.56,.8-15.42,.76-22.69,2.8-.57,.16-1.72,.3-2.05,.2-1.83-.53-4.1,.09-6.1,.42-7.75,1.25-15.68,2.01-23.15,4.32-1.7,.53-3.81,.72-5.72,1.1-1.92,.37-3.82,.79-5.74,1.12-1.06,.21-2.28,.41-3.37,.8-.55,.2-1.06,.41-1.5,.67-.45,.24-.83,.5-1.1,.79-1.58,1.58-2.67,3.17-4.11,4.53-14.05,13.29-9.31,31.94-13.98,29.41-.88-.47-1.3-3.18-1.49-6.12-.34-4.98,.87-9.93,3.44-14.2,2.01-3.32,4.52-7.59,6.56-11.41,.64-1.21-.77-2.48-1.91-1.7-6.76,4.62-12.73,9.44-14.32,18.96-1.36,3.43-1.5,7.3-1.78,10.94-.15,3.4-.1,6.79,.31,10.11,.11,.97-.11,2.24-.21,3.32-.15,1.08-.35,2.23-.42,3.36-.31,5.34,1.28,10.44,.79,15.69-.03,.34,.08,1.09,.2,1.28,.83,1.44,.55,3.57,.81,5.33,.63,4.31,.03,8.3,.25,12.49,.18,3.84,.35,7.74,.09,11.37-.06,.42-.08,.89-.15,1.27l-.07,.41c-.03,.16-.08,.33-.07,.5l-.03,.84-.09,2.91-.18,5.83c-.23,7.77-.52,15.51-.68,23.31-.03,1.39-.14,3.13,.1,4.11,.36,1.51,.16,2.17-.11,3.65-1.31,6.97-1.35,14.64-1.14,21.77,.12,5.44,.76,10.46,.26,15.79-.13,1.49-.02,3.69,.32,5.05,1.48,5.96,1.21,12.28,1.95,18.36,.15,1.19-.3,3.25-.12,3.64,1.13,2.48,.83,5.5,1.16,8.22,.33,2.61,.49,5.3,.66,7.96,.15,2.58,.56,5.66,.21,7.6-.54,3.09,.75,4.71,.68,7.13,0,.23,.06,.59,.02,.7-1.09,2.93,.07,5.38,.36,8,.09,.83,.41,1.96,.29,2.41-.82,3.11-1.14,6.4-.45,9.99-1.04,3.65-.31,7.91-.21,11.85,.26,10.48,.98,20.95,1.68,31.38,.6,10.4,1.22,20.83,1.83,31.23l.3,4.41,.23,3.29c.02,.32,.04,.45,0,.66-.56,3.7-.55,8.34,1.89,12.24,1.22,1.94,3.02,3.48,4.99,4.44,1.99,.98,4.09,1.42,6.13,1.55,1.5,.11,2.89-.34,4.31-.44,1.54-.13,3.5-.71,4.85-2,1.4-1.31,2.1-3,2.52-4.5,.5-1.74,1.1-3.91,.89-5.01-.68-4.04-.59-8.14-.76-11.94-.08-1.85,.18-3.81,.7-5.09,.11-.3,.22-.57,.35-.84,.14-.26,.12-.59,.18-.89v-.76l-.03-.58c-.03-.4-.08-.79-.14-1.17-.15-.82-.01-2.82,.25-3.51,.97-2.53,.74-5.5,.77-8.3,.07-3.94-.25-7.92-.74-11.84-.21-1.77-.59-3.43-1.02-5.09-.22-.82-.44-1.65-.66-2.48-.11-.39-.21-.78-.32-1.17-.03-.16-.1-.33-.11-.5,.01-.18,.04-.35,.08-.53,.03-.21,.07-.43,.11-.65,.04-.25,.1-.52,.14-.78,1.47-7.36,1.89-14.89,1.72-22.35-.15-7.47-.88-14.89-1.54-22.26-.14-1.58-.32-3.16-.5-4.74l-.27-2.38-.13-1.19c-.03-.37-.09-.86-.1-1.06l.08-2.18c.01-.37,.03-.76,.07-1.11l.14-.95c.3-1.24,.98-2.35,1.91-3.08,.37-.36,.88-1.1,1.45-1.6,.53-.43,1.47-1.11,1.74-1.05,.95,.11,1.84,.13,2.78,.19,.91,.09,1.85,.33,2.67,.75,.72,.44,1.71,1.22,2.61,1.91l2.77,2.09,2.74,2.08c.08,.05,.17,.11,.23,.19l.25,.25,.63,.61,1.24,1.22c3.35,3.24,6.79,6.36,10.29,9.42,2.45,2.14,5.19,4.06,7.12,6.63,.57,.77,2.4,2.16,3.24,2.48,1.54,.58,2.67,1.73,3.92,2.71,2.11,1.65,4.24,3.29,6.23,5.03,2.07,1.79,3.92,3.84,6.04,5.49l.3,.24c.08,.04,.13,.1,.19,.15,1.45,1.36,3.07,2.37,4.71,3.22,.82,.43,1.66,.8,2.51,1.14,.43,.18,.86,.33,1.28,.48,.54,.18,1.12,.38,1.68,.5h.1s.74-.08,.74-.08l.35-.03h.16c.2,.02,.34,.05,.43,.09,.13,.08,.21,.11,.34,.46l.22,.64,.35,.32c2.28,2.08,4.88,3.51,7.4,4.8,2.33,1.2,4.58,2.38,6.51,3.99,2.03,1.65,4.04,3.4,5.96,5.22,3.86,3.62,7.41,7.59,10.86,11.63,.77,.9,1.44,1.74,2.17,2.58,.25,.25,.44,.57,.76,.75,.29,.19,.63,.4,.84,.5,.49,.25,1,.47,1.55,.63,.6,.19,1.99,.83,2.25,1.1,1.29,1.35,3.5,1.77,5.42,2.18,1.02,.23,2.07,.35,3.12,.38,1.04-.02,2.11-.1,3.13-.23,2.04-.4,4.02-1.02,5.78-1.98,3.6-1.83,6.57-4.38,9.42-6.99,6-5.57,10.85-12.07,15.74-18.42,2.44-3.17,4.86-6.35,7.43-9.38,1.28-1.51,2.59-3,3.98-4.38,.7-.71,1.37-1.34,2.16-2.04,.47-.45,.76-.83,1.09-1.2l.99-1.12c1.79-2.02,3.45-4.1,5.88-5.77,1.82-1.23,4.51-4.01,5.91-5.93,1.44-1.96,3.06-3.47,4.74-4.88,2.35-1.93,5.04-3.3,6.77-5.94,.18-.25,.83-.81,1.06-.9,2.43-.83,4.47-3.11,6.62-4.8,3.62-2.83,7.18-5.78,10.84-8.58,1.99-1.51,3.73-3.28,6.19-4.39,1.53-.69,4.39-3.02,5.44-4.39,1.16-1.53,2.5-2.58,3.86-3.65l-.12,1.35,3.05-2.43c.8-.64,1.71-1.08,2.68-1.37l.79,.44c.05-.22,.09-.44,.13-.65,1.67-.3,3.42-.1,4.98,.66,2.8,1.32,4.65,4.19,4.67,7.29v.12c.61,7.2,1.2,14.45,1.47,21.63,.15,3.54-.01,7.18-.03,10.81l-.12,10.9c-.01,1.81-.18,3.62-.34,5.43-.32,3.52-.02,7.44,.07,11.19,.02,.83,.27,1.99,.15,2.44-.78,2.88-.14,6.09-.25,9.09-.11,2.97-.34,5.95-.23,8.92,.01,.49,.02,1,.04,1.49q0,.32-.01,.48l-.09,.56c-.15,1.02-.29,2.05-.37,3.08-.18,2.06-.13,4.16,.35,6.06,.08,3.91,.25,7.47,.03,11.16l-.08,1.38c-.01,.23-.03,.44-.04,.81v3.56c.01,1.9,.02,3.8,.07,5.71,.05,1.77,.02,3.23-.33,4.69-.14,.55,.03,2.38,.25,2.78,.87,1.54,.78,3.61,1.25,5.52l.46,1.77c.2,.59,.37,1.2,.6,1.8,.46,1.2,1.14,2.58,2.33,3.71,2.39,2.11,5.2,3.23,8.15,3.57,2.89,.31,6.08-.2,8.5-2.22,.6-.49,1.8-1.14,2.5-2.12,.68-.84,1.29-2.26,1.26-2.94,0-.87-.09-1.74-.23-2.6-.07-.43-.14-.84-.23-1.25-.09-.42-.2-.87-.26-1.08-.08-.26-.01-.49-.01-.83,.02-.35,.04-.69,.09-1.02,.07-.65,.16-1.24,.27-1.72,.63-2.67,.6-5.08,.65-7.55,.13-7.33,.48-14.62,.36-22.03-.12-7.82,.22-16.01,1.08-24.15,.81-7.46,.71-15.48,1.02-23.25,.09-1.95-.32-3.7-.29-5.26,.21-9.95,.58-19.93,.78-32.14-.1-9.71,.65-21.74-.43-33.68-.33-3.47-.64-5.45-1.29-6.47-.01-.31-.01-.61-.02-.92,.01-.1,.01-.19,.02-.29,.12,.19,.29,.31,.53,.32,2.28,.03,4.02-4.64,3.79-11.08-.03-1.17-.09-2.79,.14-3.6,.76-2.6,.53-5.49,.66-8.28,.13-2.77,.41-5.49,.46-8.26,.12-8.45-1.22-16.98-1.15-25.41,0-.14-.01-.3-.03-.46l-.04-.25c-.01-.05-.02-.13-.03-.16-.03,.04-.09,.01-.11,.01-.01-.01-.02,.02-.02-.07v-.24s.01-.49,.01-.49v-.98c.02-.67,.04-1.31,.11-1.99,.47-4.55,1.13-9.32,.98-14.35-.09-2.5-.38-5.08-1.06-7.64-.34-1.27-.77-2.55-1.33-3.76-.14-.31-.26-.61-.42-.92-.15-.27-.34-.64-.37-.64-.11-.09-.2-.14-.25-.26l.03-.09s.02-.24,.03-.36l.04-.82,.06-1.67,.03-3.38c.04-2.27,.23-4.58,.95-6.84,.19-.56,.35-1.65,.29-2.1-.52-3.06,.56-6.43,.58-10.01,0-.63,0-1.25-.02-1.91l-.03-.65v-.84c.04-1.12,.07-2.25,.1-3.37,.02-2.26-.07-4.53-.5-6.8-.26-1.26-.3-2.75-.34-4.31-.09-1.57-.21-3.19-.58-4.67-.25-.95,.23-3.17,.08-5.23-.72-7.93-2.04-15.87-4.78-23.68-1.43-3.87-3.16-7.8-6.28-11.35-1.56-1.71-3.29-3.14-5.1-4.33-1.79-1.25-3.65-2.25-5.53-3.22-5.14-2.55-10.69-3.92-16.21-4.86-5.54-.93-11.08-1.47-16.57-2.18-1.81-.25-4.07,.36-6.11,.35-2.61,.02-5.21,.16-7.79,.41-1.3,.11-2.59,.25-3.87,.42l-1.93,.26-.97,.14-.24,.03-.08,.02c-.06,.01-.12,.03-.18,.03h-.1l-4.01-.34-4.15-.4c-2.75-.27-5.53-.64-8.33-1.05-3.6-.55-7.29-.89-10.97-1.16-1.22-.09-2.57,.2-3.62,.02-1.1-.18-2.19-.33-3.29-.45-1.09-.12-2.19-.21-3.38-.24-2.17,.02-4.28,.23-6.45,.69-1.35,.29-3.74,.36-4.97,.11-1.34-.27-2.71-.36-4.09-.37,2.22-7.88,4.63-15.63,7.23-23.32,2.47-10.22,7.99-20.02,15.23-27.3,6.3-6.15,13.63-12.24,21.45-16.78,2.47-2.34,6.07-1.09,7.79-4.11,.21-.46,.29-.59,1.56-1.04,16.42-7.36,33.41-15.07,51.34-18.12,17.29-3.63,36.53-3.57,54.45-1.67,6.05-.09,11.54,3.41,17.43,2.06,2.97-.21,5.61,2.35,8.67,1.55,4.89,2.6,10.67,2.7,16.02,4.16,4.18,.46,6.36,3.87,10.58,3.22,15.78,3.29,31.1,9.26,46.14,15.32,.58,.25,.83,.38,1.32,1.09,2.79,2.89,7.24,3.87,10.57,5.83,.83,.63,2.17,1.44,3.13,1.89,1.08,1.77,3.15,2.97,4.74,4.13,3.76,3.15,5.96,8.6,10.59,10.82,3.62,4.1,7.69,8.15,10.79,12.66,.82,1.51,.45,3.58,2.43,4.17,4.61,4.19,6.49,10.84,10.94,15.36,.47,.72,.43,1.71,.89,2.55,.52,1.21,1.93,1.76,2.49,3,2.59,8.82,7.55,17.15,11.4,25.56,3.76,7.88,4.14,16.84,7.17,24.98,3.09,10.34,4.74,20.9,6.63,31.57,1.12,9.2,3.82,23.69,16.21,20.71,2.73,6.66,10.98-.16,8.72-6.08,1.22,1.96,1.66-.99,1.22-2.26Zm-363.32,48.89c2.29,6.36,5.21,22.58,5.21,22.58l-2.91,17.86s-12.44,17.29-23.92,17.57c-34.23,.83-37.45-34.15-37.45-34.15l3.12-23.21s7.1-21.62,12.28-29.73c6.56-6.87,6.71-15.46,12.52-22.47,5.46-2.83,12.9,8.24,12,12.16,7.25,5.57,17.94,28.72,19.15,39.38Z"/>
        <path class="cls-2" d="M707.6,248.63c-3.65-7.95-10.78-12.64-17.3-16.16-7.68-7.45-26.21-10.74-39.77-9.61-6.1,.84-14.47,3.37-23.59,7.11-2.13-.46-3.78,.75-5.24,1.82-1.33,.98-2.59,1.9-4.15,1.72l-.6-.07-.08,.6c-.09,.69-.48,.93-1.23,1.33-.72,.38-1.6,.85-2.06,2.01-.29-.1-.53-.11-.76-.03-.37,.13-.5,.44-.61,.69-.1,.23-.23,.52-.59,.85-6.35,5.83-13.15,15.67-16.78,22.34-3.07,5.63-3.1,12.43-.1,17.75,1.51,2.67,3.35,4.15,5.47,4.4,.22,.03,.45,.04,.68,.04,4.78,0,10.12-5.74,15.75-11.81,2.59-2.79,5.27-5.67,7.86-7.91,.47-.41,1.57-1.07,2.72-1.77,2.43-1.47,3.96-2.44,4.41-3.23,2.71-3.13,5.64-4.68,8.74-6.32,1.5-.79,3.05-1.61,4.6-2.63,1.55-.13,3.02-.97,3.45-1.24,.5-.07,2.32-.32,3.79-.59,2.16-.4,3.15-.49,4.09-.36,6.28,.84,26.23,6.81,28.06,7.81,.84,.46,2.38,.95,4.17,1.52,2.79,.89,6.26,2,8.2,3.35,2.19,1.54,8.28,2.85,11.28,.31,2.5-2.12,2.36-6.13-.42-11.91Z"/>
        <g>
          <path class="cls-3" d="M749.51,426.33c-1.2,4.17-.09,8.27-.98,12.49,.67,5.14-2.06,10.63-5.72,14.42-4.07,2.1-16.47,7.35-20.9,9.54-4.15,.66-7.05,3.23-10.78,4.88-.69,.18-1.7,.05-2.28,.46-3.01,2.82-7.45,3.11-10.26,5.8-2.83-.41-4.62,2.63-7.31,2.23-2.06,1.43-4.65,2.35-6.91,3.6-4.1,.55-7.24,3.15-10.76,4.73-5.2,1.22-9.91,5.03-15.07,6.99-.61,.32-1.2,.93-2.06,.45-2.26,1.6-4.93,2.77-7.48,3.92-8.57,4.82-16.9,9.72-26.23,12.05-6.79,4.6-25.29,3.06-33.96,3.17-9.91-.9-19.85-.87-29.24,.59-8.16,.14-16.3,1.15-24.53,.55-3.51-1.46-11.14,.87-10.49-4.97-14.38,4.25-15.01-18.17-15.98-27.62,.67-7.79-3.47-14.52-.7-22.05,3.88-6.33,5.72-4.11,11.15-5.91,.81-.63,1.59,.64,2.5,.32l7.68-.5c3.06-1.54,6.88-.57,10.11-.25,2.1-.56,4.35-.59,6.47-.3,5.46-.03,26.14-2.27,30.78-2.01,3.9-.18,7.45-.54,11.06-.19,1.64,.31,3.37-1.66,5.07-.77,9.62-.22,19.33-5.44,28.57-6.83,9.23-3.24,19.73-4.98,28.76-8.05,3.75,.72,11.16-3.42,14.82-2.74,10.73-1.96,22.08-6.56,32.87-8.23,10.75-3.82,22.36-7.43,33.95-10.21,8.28-3.34,16.92-.83,17.41,8.61,.77,1.16,1.15,2.33,.22,3.37-.21,.81,1,1.45,.21,2.46Z"/>
          <path class="cls-3" d="M855.66,424.14c-1.48,5,.9,10.69-3.46,14.95-.18,1.39-2.23,3.5-3.43,3.03-2.49,2.72-11.61,5.37-14.5,3.87-6.13,1.43-14.29,2.71-20.95,1.51-.35,.63-.86,.15-1.16,.63-1.19,1.14-2.21,.09-3.32,1.24-3.36,.3-15.3,4.11-14.27-3.47-6.28,4.91-15.89-5.15-15.81-12.02-.45-1.04,1.68-1.4,.42-2.53-.2-.32,.55-.47,.53-.69-.29-2.1,1.59-10.17,3.27-11.38,.64-2.38,3.75-11.54,3.63-13.39,1.88-1.92,1.93-5.6,3.58-7.26,4.8-4.4,10.11-6.07,15.99-7.71,2.09-1.58,4.85-.45,6.39-2.01,1.89,1.16,4.3-1.69,6.06-.56,.14,.1,.36-.71,.56-.58,2.56,1.47,11.01-4.01,12.55-2.7,.15,.19,.41,.11,.46-.12,.57-1.54,1.93-.19,2.66-1.71,5.57-1.47,15.37-.05,16.89,6.67,2.55,2.63,1.27,7.24,2.62,11.5,.19,6.8-.86,16.08,1.31,22.74Z"/>
        </g>
        <path class="cls-2" d="M539.97,375.73c-.87,.39-1.77,.74-2.7,1.01-.15,.05-.31,.09-.47,.14,2.24,.22,3.56-.12,4.19-1.65-.33,.16-.67,.34-1.02,.49Zm259.95-97.86l-.68,5.71c.32-2.29,.63-4.54,.89-6.81-.1,.36-.16,.72-.21,1.11Z"/>
        <path class="cls-2" d="M898.11,436.95c-3.56-20.75-8.36-40.41-11.46-61.3,.49-4.32-1.27-6.11-1.89-10.36-.23-2.27,.21-5.77-1.22-7.78-5.68-11.16-16.09-22.31-29.25-22.13-16.55,.13-33.71,6.55-49.87,8.97-2.61-.15-5.11-1.19-7.08-3.02-2.76-2.59-4.06-6.36-3.46-10.11,.07-.4,.04-.76-.04-1.08,3.24-5.98,.29-12.97,2.77-19.04-.02-6.29,.81-12.67,1.44-18.57,.32-2.6,.66-5.05,.99-7.42,.07-.52,.13-1.03,.21-1.55l.68-5.71c.04-.38,.11-.75,.21-1.11,.66-2.73,2.5-4.94,4.91-6.11h.11c3.56,.03,7.59-.24,10.98-1.04,3.3,.08,6.88-1.1,10-2.27,1.18-.4,2.85,.12,4.02-.41,2.61-1.43,5.84-2.78,8.22-4.78,6.16-5.22,11.46-11.57,15.77-18.36,.61-1.22,.77-2.98,1.54-4.09,.07,1.66-.87,3.64-1.6,5.1-.77,3.73-2.28,7.52-4.17,10.9-1.05,1.76-1.66,3.91-3.13,5.44-.56,.79-1.28,1.08-1.61,1.87-.21,.88,.34,1.28,1.19,1.48,.72,.25,1.13-.09,1.87-.34,2.02-.92,4.32-2.32,5.59-4.09,3.62-3.57,6.22-8.33,8.79-12.76,4.5-7.13,7.25-15.36,9.17-23.58,1.25-5.23,3.33-10.53,3.71-15.94,1.43-9.95,.53-19.99-.81-29.91-.14-1.04-.33-2.52-.32-3.04-.08-3.36-1.29-6.55-1.04-9.95,.07-2.87,1.32-6.01,2.14-8.86,.44-3.4,3.2-8.87,5.2-15.33,1.82-5.35,4.44-10.4,5.66-15.88,.99-3.28,1.44-6.86,1.73-10.18,1.08-4.61,.44-9.89-.14-14.59-1-5.46-2.91-19.57-8.93-21.39-5.08-.44-3.65,8.82-5.2,11.86-1.72,5.34-4.11,10.73-6.49,15.82-.36,.68-1.23,2.06-1.38,2.63-.35,1.58-1.06,3.29-1.53,4.59-3.84,9.05-9.83,16.76-15.43,24.82-3.37,4.83-6.84,9.66-9.17,13.07-5.22,8.42-8.23,17.99-11.14,27.42,0,.07-.52-.03-.55-.1-.29-1.21-.71-2.48-.79-3.72-.54-4.18-.31-8.2,.37-12.27,.2-1.54,.56-3.48,.72-4.93,.97-2.34,1.37-4.66,2.27-7.02,.8-2.1,3-3.65,3.81-5.75,.16-.41,.11-1.31,.23-1.45,.67-.77,.83-1.45,1.09-2.3,6.95-12.42,9.4-27.7,6.68-41.74-.83-5.43-2.41-16.79-7.68-19.52-.43-.2-1.12,.57-1.56,.59-3.04,.37-3.29,3.27-3.54,5.61-.65,3.46-1.82,6.95-3.27,10.21-.5,.99-.65,2.71-.65,3.9-3.17,9.01-7.73,18.22-13.37,25.83-1.3,1.31-1.99,1.91-3.03,3-1.96,2.33-3.9,4.89-5.59,7.47-1.53,3.14-4.18,6.18-5.38,9.55-3.51,6.07-6.62,20.44-6.62,20.44,0,0-.8,5.32-1.88,5.73-.25,1.56-1.31-2.66-1.46-3.31l-.41-4.38c.29-6.12,1.28-11.93,3.41-17.66,1.46-5.16,3.9-9.62,5.89-14.54,.71-1.94,2.3-4.54,2.94-6.72,1.04-3.19,1.96-6.34,3.26-9.72,.33-.82,.16-2.64,.21-3.42,.16-2.23,1.82-5,1.88-7.08-.07-2.32-.41-5.63-.35-7.69-.19-1.24,.58-1.99,.56-2.95-.18-4.6-.61-9.32-1.92-13.74-.29-1-.29-2.63-.39-3.47-.34-2.32-2.08-4.35-2.74-6.45-1.44-2.32-2.1-4.38-4.47-4.97-1.32-.13-1.99,1.09-2.33,2.22-1.13,4.37-1.89,9.37-3.78,13.66-.1,.2-.44,.56-.56,.92-.58,2.27-1.45,3.42-2.22,5.84-.59,1.7-2.66,4.36-3.16,6.35-1.1,2.73-2.8,5.51-3.77,8.36-4.81,8.3-10.57,16.09-15.78,24.22-7.24,10.35-13.95,21.23-18.83,33-1.16,3.08-2.01,6.3-2.7,9.52-.77,1.27-1.21,3.13-1.59,4.71-.38,1.48-1.44,2.53-1.57,3.75-.13,1.02-.38,1.33-.77,2.4-.3,.79-.25,2.66-.3,3.43-.13,2.51-.97,5.23-.87,7.69,.01,.77,.08,1.9-.41,3.31-.77,5.49-.69,11.17-.45,16.53,.01,3.71,1.22,7.11,2.23,10.62,.14,.5-.66,1.58-.67,1.84-.02,1.11,.76,2.48,1.09,3.7,2.68,8.48,7.2,16.98,14.08,22.85,2.23,1.99,4.72,3.32,6.9,5.2,3.49,2.28,7.23,4.31,11.08,5.86h0c5.08,2.09,8.3,7.01,8.32,12.32-3.7,18.81-7.12,38.07-11.98,56.12-.61,3.7-1.25,7.41-1.89,11.14-2.26,6.73-8.61,11.47-15.94,11.47h-5.23c-3.47-.63-6.9-1.22-10.26-.67-4.03-2.23-8.26,.18-12.34-1.38-1.79-.99-3.98-.13-5.7-.36-1.48-1.54-3.14,.67-4.71-.3-29.33-4.62-59.68-5.76-89.18-4.78-11.69,1.23-25.44,5.03-37.77,6.23-2.78-.18-4.03,1.79-6.63,1.53-8.48,.27-16.46,4.04-24.93,4.35-22.63,4.22-44.5,7.67-66.92,13.19-12.5,3.04-29.04,2.81-33.01,15.58h-.01l-.17,.56s0,.02-.01,.03l-1.25,4.25c-1.25,4.26-5.21,7.14-9.65,7.02l-5.89-1.01c-5.07-1.33-10.87-2.16-16.27-2.73s-10.39-.89-13.84-1.19c-6.79-3.13-16.69-1.8-24.09-3.34-1.14,1.74-3.96,.93-3.95,3.47-.33,.93-2.03,.5-2.04,1.88-1.34,4.93,.2,10.78,.67,15.98-.49,15.99,11.05,33.13,20.42,44.95-.39,2.51,3.07,3.05,2.84,5.48-.2,.6,.31,1.12,.94,1,10.34,8.46,18.37,19.81,30.26,23.05,.94,1.83,3.4,1.93,5.29,2.45,3.12,1.16,8,3.18,12.75,4.19l8.73,3.97,.25,.05c4.38,0,8.08,3.14,8.79,7.51l2.36,9.97c1.2,6.38,2.61,12.75,3.66,19.08,.52,22.64,29.68,14.78,44.53,15.7,2.92,1.25,7.13,.22,10.08,.82,1.13-.38,1.59-.64,2.88-.15,3.99,.27,8.56-.52,12.36-1.58,10.56-2.28,23.29-.32,34.28-2.15,37,1.2,77.14,1.8,109.7-18.15,14.9-7.49,30.64-14.25,45.98-21.9l3.23-.83c4.83-2.39,10.44-.03,12.38,4.64,.59,2.33,1.25,4.63,1.97,6.88l.19,.65h.01c.71,2.18,1.48,4.35,2.32,6.44l2.41,5.62c.89,1.22-.05,2.92,1.17,3.81,3.69,3.24,4.29,9.2,8.61,12.15,8.35,13.58,21.89,24.53,36.32,31.93,12.43,3.17,27.72,11.87,41.36,6.7-1.54,7.71,12.7,4.15,17.39,4.64,9.28-1.71,26.16-4.78,17.74-17.77-6.54-7.91-16.25-.29-24.3-1.92-5.53,1.1-11.15-.21-17.03,.08-26.68-10.03-54.31-30.75-61.74-59.3,1.06-2.01-.66-3.28-1.24-4.95-1.51-8.94,2.57-17.18,9.99-21.66,1.48-.52,3.02-.94,4.63-1.16,26.73,.42,53.73-.95,80.4-3.71,8.11-1.11,16-4.51,19.96-11.91,4.5-6.38,8.71-15.96,4.29-23.27,3.65,1.06,5.95-.42,4.63-6Zm-360.84-60.21c.93-.27,1.83-.61,2.7-1.01,.35-.15,.69-.33,1.02-.49-.64,1.53-1.95,1.87-4.19,1.65,.16-.05,.32-.09,.47-.14Zm340.3,84.87c-.07-.61-.43-1.15-1.1-1.77-2.34-2.1-3.04-1.51-5.59,.1-4.24,2.7-9.59,1.96-14.39,2.86-22.91,.9-46.25,1.32-69.32,2.1-4.45-.49-7.92,2.63-12.17,3.13-1.22,.57-2.4,1.2-3.58,1.84-5.16,2.86-10,6.17-15.93,7.56-3.54,1.6-7.07,3.19-10.59,4.76-21.5,9.67-42.54,18.97-63.81,28.95-5.14,2.78-10.47,4.3-15.6,6.76-1.42,1.7-3.12,1.35-4.96,2.12-3.04,2.23-7.1,1.76-10.42,3.03-1.51,1.06-2.86-.46-3.98,1.16-21.69,3.9-44.58,4.18-66.55,6.12-5.5-1.61-11.53,.99-17.09-.54-1.2-.42-3-1.25-4.11,.4-5.38,.65-11.05,1.42-16.56,1.53-6.91,.33-14.61,.29-21.05,.68-6.23-1.31-12.4,1.09-18.74,.46-9.07-3.69-12.2-4.14-16.05-13.51-1.56-8.34-1.62-18.5-3.02-26.98-2.72-18.53-3.79-36.91-6.28-55.14-.01-3-1.48-5.08-1.21-7.92,.48-2.6-.27-4.25,.09-6.33-.58-7.55-1.72-15.19-2.72-22.54,1.48-7.76,10.9-9.34,17.76-10.28,2.51-1.93,4.85-.58,7.63-2,.74-.56,2.67-.3,4.03-.57,2.12,.14,3.27-1.74,5.4-1.77,3.24,.58,5.89-1.12,8.78-1.94,13.56-.63,26.7-7.08,40.39-8.3,17.7-3.81,35.51-7.78,53.01-8.65,2.51-1.44,5.53-.19,7.88-1.85,.75-.53,1.88-1.72,3.47-.69,5.78,.34,11.57-1.2,17.11-1.15,17.82,.5,35.47,3.46,53.36,5.21,20.57,1.27,40.9,3.88,61.46,4.21,0,0,5.38,.38,8.07-.71,1.27-.52,2.48-1.11,3.54-1.58,2.75,.01,4.66-1.27,7.3-1.77,5.75-.92,11.47-2,17.14-3.17,15.74-3.26,31.23-7.28,46.75-10.97,35.78-10.52,29.33,17.34,36.75,41.82,2.78,21.51,13.1,44.61,4.92,65.34Z"/>
      </g>
    </g>
  </g>
</svg>